<svg width="204" height="226" viewBox="0 0 204 226" fill="none" xmlns="http://www.w3.org/2000/svg">
<path d="M22.3311 36.8527C25.4779 26.9535 31.9077 18.3583 34.7292 15.2981C51.7381 0.449371 68.3884 5.61848 80.9857 15.2981L235.589 170.222C189.581 172.7 89.4503 172.297 56.9861 150.862C26.0269 130.421 19.8462 82.014 20.4023 54.715M22.3311 36.8527L5.99944 54.715H20.4023M22.3311 36.8527C21.3985 39.7864 20.5751 46.2314 20.4023 54.715" stroke="white" stroke-width="11.2741" stroke-linejoin="round"/>
<path d="M22.3311 36.8527C25.4779 26.9535 31.9077 18.3583 34.7292 15.2981C51.7381 0.449371 68.3884 5.61848 80.9857 15.2981L235.589 170.222C189.581 172.7 89.4503 172.297 56.9861 150.862C26.0269 130.421 19.8462 82.014 20.4023 54.715M22.3311 36.8527L5.99944 54.715H20.4023M22.3311 36.8527C21.3985 39.7864 20.5751 46.2314 20.4023 54.715" stroke="#00A300" stroke-opacity="0.1" stroke-width="11.2741" stroke-linejoin="round"/>
<path d="M203.922 171.719L245 211.884C238.56 217.173 223.112 226.164 212.835 219.817C202.558 213.471 173.267 185.107 159.906 171.719" stroke="white" stroke-width="7.0628" stroke-linejoin="round"/>
<path d="M203.922 171.719L245 211.884C238.56 217.173 223.112 226.164 212.835 219.817C202.558 213.471 173.267 185.107 159.906 171.719" stroke="#00A300" stroke-opacity="0.1" stroke-width="7.0628" stroke-linejoin="round"/>
<path d="M219.158 152.659C203.158 152.975 163.571 149.755 144.57 127.561C125.57 105.368 125.102 76.0035 127.243 64.0952" stroke="white" stroke-width="7.04633" stroke-linejoin="round"/>
<path d="M219.158 152.659C203.158 152.975 163.571 149.755 144.57 127.561C125.57 105.368 125.102 76.0035 127.243 64.0952" stroke="#00A300" stroke-opacity="0.1" stroke-width="7.04633" stroke-linejoin="round"/>
<path d="M219.158 171.345C199.788 171.728 129.731 165.813 106.729 138.938C83.726 112.062 113.849 69.2843 122.861 58.6567" stroke="white" stroke-width="7.04633" stroke-linejoin="round"/>
<path d="M219.158 171.345C199.788 171.728 129.731 165.813 106.729 138.938C83.726 112.062 113.849 69.2843 122.861 58.6567" stroke="#00A300" stroke-opacity="0.1" stroke-width="7.04633" stroke-linejoin="round"/>
<path d="M123.956 168.326L135.209 188.783" stroke="white" stroke-width="7.04633" stroke-linecap="round" stroke-linejoin="round"/>
<path d="M123.956 168.326L135.209 188.783" stroke="#00A300" stroke-opacity="0.1" stroke-width="7.04633" stroke-linecap="round" stroke-linejoin="round"/>
<path d="M114.297 167.278L106.778 180.151" stroke="white" stroke-width="7.04633" stroke-linecap="round" stroke-linejoin="round"/>
<path d="M114.297 167.278L106.778 180.151" stroke="#00A300" stroke-opacity="0.1" stroke-width="7.04633" stroke-linecap="round" stroke-linejoin="round"/>
<ellipse rx="6.67209" ry="6.68591" transform="matrix(-1 0 0 1 52.2566 46.2328)" fill="white"/>
<ellipse rx="6.67209" ry="6.68591" transform="matrix(-1 0 0 1 52.2566 46.2328)" fill="#00A300" fill-opacity="0.1"/>
<path d="M186.146 173.764L231.954 218.57" stroke="white" stroke-width="4.15459" stroke-linecap="round" stroke-linejoin="round"/>
<path d="M186.146 173.764L231.954 218.57" stroke="#00A300" stroke-opacity="0.1" stroke-width="4.15459" stroke-linecap="round" stroke-linejoin="round"/>
</svg>
