<svg width="328" height="361" viewBox="0 0 328 361" fill="none" xmlns="http://www.w3.org/2000/svg">
<path d="M292.829 58.4214C287.786 42.5644 277.482 28.7962 272.961 23.8941C245.704 0.108714 219.022 8.38886 198.834 23.8941L-48.9189 272.059C24.8086 276.028 185.27 275.384 237.294 241.048C286.906 208.304 296.811 130.763 295.92 87.0342M292.829 58.4214L319 87.0342H295.92M292.829 58.4214C294.323 63.1207 295.643 73.4448 295.92 87.0342" stroke="#CDE4CD" stroke-width="17.6055" stroke-linejoin="round"/>
<path d="M1.82812 274.457L-64 338.796C-53.6803 347.267 -28.9236 361.67 -12.4546 351.503C4.01441 341.337 50.9532 295.903 72.364 274.457" stroke="#CDE4CD" stroke-width="11.0292" stroke-linejoin="round"/>
<path d="M-22.5879 243.925C3.05183 244.432 66.4915 239.274 96.94 203.724C127.389 168.173 128.139 121.135 124.708 102.06" stroke="#CDE4CD" stroke-width="11.0034" stroke-linejoin="round"/>
<path d="M-22.5879 273.858C8.45243 274.471 120.72 264.998 157.582 221.946C194.444 178.895 146.171 110.372 131.729 93.3484" stroke="#CDE4CD" stroke-width="11.0034" stroke-linejoin="round"/>
<path d="M129.973 269.021L111.94 301.79" stroke="#CDE4CD" stroke-width="11.0034" stroke-linecap="round" stroke-linejoin="round"/>
<path d="M145.453 267.343L157.502 287.963" stroke="#CDE4CD" stroke-width="11.0034" stroke-linecap="round" stroke-linejoin="round"/>
<ellipse cx="244.874" cy="73.4471" rx="10.6921" ry="10.7098" fill="#CDE4CD"/>
<path d="M30.3136 277.733L-43.0947 349.505" stroke="#CDE4CD" stroke-width="6.48774" stroke-linecap="round" stroke-linejoin="round"/>
</svg>
